<mxfile host="app.diagrams.net" agent="Mozilla/5.0 (Windows NT 10.0; Win64; x64) AppleWebKit/537.36 (KHTML, like Gecko) Chrome/127.0.0.0 Safari/537.36" version="24.7.7">
  <diagram id="7TUtZL8wdUX0GROEVt0A" name="Page-1">
    <mxGraphModel dx="1050" dy="557" grid="1" gridSize="10" guides="1" tooltips="1" connect="1" arrows="1" fold="1" page="1" pageScale="1" pageWidth="850" pageHeight="1100" math="0" shadow="0">
      <root>
        <mxCell id="0" />
        <mxCell id="1" parent="0" />
        <mxCell id="aHINP1n0jCYyxbckYGxR-1" value="&lt;span style=&quot;font-size: 14px;&quot;&gt;&lt;b&gt;Hostel&lt;/b&gt;&lt;/span&gt;&lt;div&gt;&lt;span style=&quot;font-size: 14px;&quot;&gt;&lt;b&gt;Admin&lt;/b&gt;&lt;/span&gt;&lt;/div&gt;" style="shape=umlFrame;whiteSpace=wrap;html=1;pointerEvents=0;width=80;height=40;" vertex="1" parent="1">
          <mxGeometry x="100" y="120" width="650" height="360" as="geometry" />
        </mxCell>
        <mxCell id="aHINP1n0jCYyxbckYGxR-2" value="&lt;span style=&quot;font-size: 15px;&quot;&gt;&lt;b&gt;Log in&lt;/b&gt;&lt;/span&gt;" style="rounded=1;whiteSpace=wrap;html=1;arcSize=40;" vertex="1" parent="1">
          <mxGeometry x="169" y="201" width="73" height="30" as="geometry" />
        </mxCell>
        <mxCell id="aHINP1n0jCYyxbckYGxR-3" value="&lt;span style=&quot;font-size: 15px;&quot;&gt;&lt;b&gt;View Requests&lt;/b&gt;&lt;/span&gt;" style="rounded=1;whiteSpace=wrap;html=1;arcSize=40;" vertex="1" parent="1">
          <mxGeometry x="458" y="201" width="117" height="30" as="geometry" />
        </mxCell>
        <mxCell id="aHINP1n0jCYyxbckYGxR-5" value="&lt;span style=&quot;font-size: 15px;&quot;&gt;&lt;b&gt;Select operation&lt;/b&gt;&lt;/span&gt;" style="rounded=1;whiteSpace=wrap;html=1;arcSize=40;" vertex="1" parent="1">
          <mxGeometry x="453" y="250" width="128" height="30" as="geometry" />
        </mxCell>
        <mxCell id="aHINP1n0jCYyxbckYGxR-6" value="&lt;span style=&quot;font-size: 13px;&quot;&gt;After log in successful&lt;/span&gt;" style="html=1;verticalAlign=bottom;endArrow=block;curved=0;rounded=0;exitX=1;exitY=0.5;exitDx=0;exitDy=0;entryX=0;entryY=0.5;entryDx=0;entryDy=0;" edge="1" parent="1" source="aHINP1n0jCYyxbckYGxR-2" target="aHINP1n0jCYyxbckYGxR-3">
          <mxGeometry width="80" relative="1" as="geometry">
            <mxPoint x="369" y="296" as="sourcePoint" />
            <mxPoint x="449" y="296" as="targetPoint" />
          </mxGeometry>
        </mxCell>
        <mxCell id="aHINP1n0jCYyxbckYGxR-19" value="" style="endArrow=classic;html=1;rounded=0;exitX=0.5;exitY=1;exitDx=0;exitDy=0;entryX=0.5;entryY=0;entryDx=0;entryDy=0;" edge="1" parent="1" source="aHINP1n0jCYyxbckYGxR-3" target="aHINP1n0jCYyxbckYGxR-5">
          <mxGeometry width="50" height="50" relative="1" as="geometry">
            <mxPoint x="400" y="320" as="sourcePoint" />
            <mxPoint x="450" y="270" as="targetPoint" />
          </mxGeometry>
        </mxCell>
        <mxCell id="aHINP1n0jCYyxbckYGxR-20" value="&lt;b style=&quot;&quot;&gt;&lt;font style=&quot;font-size: 14px;&quot;&gt;Allocate Room&lt;/font&gt;&lt;/b&gt;" style="rounded=1;whiteSpace=wrap;html=1;arcSize=40;" vertex="1" parent="1">
          <mxGeometry x="396" y="312" width="120" height="20" as="geometry" />
        </mxCell>
        <mxCell id="aHINP1n0jCYyxbckYGxR-21" value="&lt;b style=&quot;&quot;&gt;&lt;font style=&quot;font-size: 14px;&quot;&gt;send responce&lt;/font&gt;&lt;/b&gt;&lt;div&gt;&lt;b style=&quot;&quot;&gt;&lt;font style=&quot;font-size: 14px;&quot;&gt;to member&lt;/font&gt;&lt;/b&gt;&lt;/div&gt;" style="rounded=1;whiteSpace=wrap;html=1;arcSize=40;" vertex="1" parent="1">
          <mxGeometry x="573" y="309" width="120" height="30" as="geometry" />
        </mxCell>
        <mxCell id="aHINP1n0jCYyxbckYGxR-22" value="" style="endArrow=classic;html=1;rounded=0;entryX=0.5;entryY=0;entryDx=0;entryDy=0;exitX=0.25;exitY=1;exitDx=0;exitDy=0;" edge="1" parent="1" source="aHINP1n0jCYyxbckYGxR-5" target="aHINP1n0jCYyxbckYGxR-20">
          <mxGeometry width="50" height="50" relative="1" as="geometry">
            <mxPoint x="400" y="320" as="sourcePoint" />
            <mxPoint x="450" y="270" as="targetPoint" />
          </mxGeometry>
        </mxCell>
        <mxCell id="aHINP1n0jCYyxbckYGxR-23" value="" style="endArrow=classic;html=1;rounded=0;entryX=0.25;entryY=0;entryDx=0;entryDy=0;exitX=0.75;exitY=1;exitDx=0;exitDy=0;" edge="1" parent="1" source="aHINP1n0jCYyxbckYGxR-5" target="aHINP1n0jCYyxbckYGxR-21">
          <mxGeometry width="50" height="50" relative="1" as="geometry">
            <mxPoint x="550" y="294" as="sourcePoint" />
            <mxPoint x="500" y="322" as="targetPoint" />
          </mxGeometry>
        </mxCell>
        <mxCell id="aHINP1n0jCYyxbckYGxR-24" value="&lt;font style=&quot;font-size: 13px;&quot;&gt;If [opr = requset accepted]&lt;/font&gt;" style="text;html=1;align=center;verticalAlign=middle;whiteSpace=wrap;rounded=0;" vertex="1" parent="1">
          <mxGeometry x="304" y="275" width="160" height="30" as="geometry" />
        </mxCell>
        <mxCell id="aHINP1n0jCYyxbckYGxR-25" value="&lt;font style=&quot;font-size: 13px;&quot;&gt;If [opr = requset rejected]&lt;/font&gt;" style="text;html=1;align=center;verticalAlign=middle;whiteSpace=wrap;rounded=0;" vertex="1" parent="1">
          <mxGeometry x="579" y="279" width="149" height="20" as="geometry" />
        </mxCell>
        <mxCell id="aHINP1n0jCYyxbckYGxR-26" value="&lt;span style=&quot;font-size: 14px;&quot;&gt;&lt;b&gt;Update Member&lt;/b&gt;&lt;/span&gt;" style="rounded=1;whiteSpace=wrap;html=1;arcSize=40;" vertex="1" parent="1">
          <mxGeometry x="438" y="360" width="120" height="20" as="geometry" />
        </mxCell>
        <mxCell id="aHINP1n0jCYyxbckYGxR-27" value="" style="endArrow=classic;html=1;rounded=0;exitX=0.5;exitY=1;exitDx=0;exitDy=0;entryX=0.5;entryY=0;entryDx=0;entryDy=0;" edge="1" parent="1" source="aHINP1n0jCYyxbckYGxR-20" target="aHINP1n0jCYyxbckYGxR-26">
          <mxGeometry width="50" height="50" relative="1" as="geometry">
            <mxPoint x="400" y="310" as="sourcePoint" />
            <mxPoint x="450" y="260" as="targetPoint" />
          </mxGeometry>
        </mxCell>
        <mxCell id="aHINP1n0jCYyxbckYGxR-28" value="&lt;font style=&quot;font-size: 13px;&quot;&gt;Processing&lt;/font&gt;" style="text;html=1;align=center;verticalAlign=middle;whiteSpace=wrap;rounded=0;" vertex="1" parent="1">
          <mxGeometry x="401" y="338" width="60" height="18" as="geometry" />
        </mxCell>
        <mxCell id="aHINP1n0jCYyxbckYGxR-29" value="&lt;span style=&quot;font-size: 14px;&quot;&gt;&lt;b&gt;View Details&lt;/b&gt;&lt;/span&gt;" style="rounded=1;whiteSpace=wrap;html=1;arcSize=40;" vertex="1" parent="1">
          <mxGeometry x="518" y="423" width="120" height="27" as="geometry" />
        </mxCell>
        <mxCell id="aHINP1n0jCYyxbckYGxR-31" value="" style="endArrow=classic;html=1;rounded=0;exitX=0.5;exitY=1;exitDx=0;exitDy=0;entryX=0.5;entryY=0;entryDx=0;entryDy=0;" edge="1" parent="1" source="aHINP1n0jCYyxbckYGxR-26" target="aHINP1n0jCYyxbckYGxR-29">
          <mxGeometry width="50" height="50" relative="1" as="geometry">
            <mxPoint x="400" y="310" as="sourcePoint" />
            <mxPoint x="450" y="260" as="targetPoint" />
          </mxGeometry>
        </mxCell>
        <mxCell id="aHINP1n0jCYyxbckYGxR-32" value="&lt;span style=&quot;font-size: 13px;&quot;&gt;After Update open the detail page&lt;/span&gt;" style="text;html=1;align=center;verticalAlign=middle;whiteSpace=wrap;rounded=0;" vertex="1" parent="1">
          <mxGeometry x="310" y="386" width="220" height="18" as="geometry" />
        </mxCell>
        <mxCell id="aHINP1n0jCYyxbckYGxR-33" value="" style="endArrow=classic;html=1;rounded=0;exitX=0.5;exitY=1;exitDx=0;exitDy=0;entryX=0.75;entryY=0;entryDx=0;entryDy=0;" edge="1" parent="1" source="aHINP1n0jCYyxbckYGxR-21" target="aHINP1n0jCYyxbckYGxR-29">
          <mxGeometry width="50" height="50" relative="1" as="geometry">
            <mxPoint x="400" y="310" as="sourcePoint" />
            <mxPoint x="450" y="260" as="targetPoint" />
          </mxGeometry>
        </mxCell>
        <mxCell id="aHINP1n0jCYyxbckYGxR-34" value="&lt;span style=&quot;font-size: 13px;&quot;&gt;After sending responce open the detail page&lt;/span&gt;" style="text;html=1;align=center;verticalAlign=middle;whiteSpace=wrap;rounded=0;" vertex="1" parent="1">
          <mxGeometry x="627" y="374" width="113" height="30" as="geometry" />
        </mxCell>
        <mxCell id="aHINP1n0jCYyxbckYGxR-35" value="&lt;span style=&quot;font-size: 15px;&quot;&gt;&lt;b&gt;Log out&lt;/b&gt;&lt;/span&gt;" style="rounded=1;whiteSpace=wrap;html=1;arcSize=40;" vertex="1" parent="1">
          <mxGeometry x="169" y="421.5" width="73" height="30" as="geometry" />
        </mxCell>
        <mxCell id="aHINP1n0jCYyxbckYGxR-36" value="" style="endArrow=classic;html=1;rounded=0;exitX=0;exitY=0.5;exitDx=0;exitDy=0;entryX=1;entryY=0.5;entryDx=0;entryDy=0;" edge="1" parent="1" source="aHINP1n0jCYyxbckYGxR-29" target="aHINP1n0jCYyxbckYGxR-35">
          <mxGeometry width="50" height="50" relative="1" as="geometry">
            <mxPoint x="400" y="420" as="sourcePoint" />
            <mxPoint x="450" y="370" as="targetPoint" />
          </mxGeometry>
        </mxCell>
        <mxCell id="aHINP1n0jCYyxbckYGxR-37" value="&lt;span style=&quot;font-size: 13px;&quot;&gt;After view detail log out successful&lt;/span&gt;" style="text;html=1;align=center;verticalAlign=middle;whiteSpace=wrap;rounded=0;" vertex="1" parent="1">
          <mxGeometry x="273" y="418.5" width="225" height="18" as="geometry" />
        </mxCell>
        <mxCell id="aHINP1n0jCYyxbckYGxR-38" value="" style="ellipse;html=1;shape=startState;fillColor=#000000;strokeColor=#050000;" vertex="1" parent="1">
          <mxGeometry x="189.5" y="154" width="30" height="30" as="geometry" />
        </mxCell>
        <mxCell id="aHINP1n0jCYyxbckYGxR-40" value="" style="endArrow=classic;html=1;rounded=0;entryX=0.5;entryY=0;entryDx=0;entryDy=0;" edge="1" parent="1">
          <mxGeometry width="50" height="50" relative="1" as="geometry">
            <mxPoint x="205" y="180" as="sourcePoint" />
            <mxPoint x="204.5" y="201" as="targetPoint" />
          </mxGeometry>
        </mxCell>
        <mxCell id="aHINP1n0jCYyxbckYGxR-41" value="" style="points=[[0.145,0.145,0],[0.5,0,0],[0.855,0.145,0],[1,0.5,0],[0.855,0.855,0],[0.5,1,0],[0.145,0.855,0],[0,0.5,0]];shape=mxgraph.bpmn.event;html=1;verticalLabelPosition=bottom;labelBackgroundColor=#ffffff;verticalAlign=top;align=center;perimeter=ellipsePerimeter;outlineConnect=0;aspect=fixed;outline=end;symbol=terminate;" vertex="1" parent="1">
          <mxGeometry x="187.5" y="355" width="25" height="25" as="geometry" />
        </mxCell>
        <mxCell id="aHINP1n0jCYyxbckYGxR-42" value="" style="endArrow=classic;html=1;rounded=0;exitX=0.419;exitY=0.01;exitDx=0;exitDy=0;exitPerimeter=0;entryX=0.5;entryY=1;entryDx=0;entryDy=0;entryPerimeter=0;" edge="1" parent="1" source="aHINP1n0jCYyxbckYGxR-35" target="aHINP1n0jCYyxbckYGxR-41">
          <mxGeometry width="50" height="50" relative="1" as="geometry">
            <mxPoint x="400" y="420" as="sourcePoint" />
            <mxPoint x="450" y="370" as="targetPoint" />
          </mxGeometry>
        </mxCell>
      </root>
    </mxGraphModel>
  </diagram>
</mxfile>
